<?xml version="1.0" standalone="no"?>
<!DOCTYPE svg PUBLIC "-//W3C//DTD SVG 20010904//EN"
 "http://www.w3.org/TR/2001/REC-SVG-20010904/DTD/svg10.dtd">
<svg version="1.0" xmlns="http://www.w3.org/2000/svg"
 width="248.000000pt" height="248.000000pt" viewBox="0 0 248.000000 248.000000"
 preserveAspectRatio="xMidYMid meet">

<g transform="translate(0.000000,248.000000) scale(0.100000,-0.100000)"
fill="#000000" stroke="none">
<path d="M1165 2464 c-16 -3 -79 -16 -139 -30 -60 -13 -125 -24 -146 -24 -49
0 -180 -34 -245 -64 -62 -28 -181 -137 -240 -221 -58 -81 -96 -160 -139 -287
-31 -90 -38 -128 -45 -235 -5 -71 -17 -155 -26 -188 -19 -68 -80 -195 -125
-261 -29 -43 -37 -64 -24 -64 15 0 97 65 133 106 37 42 41 44 41 23 0 -13 -9
-66 -19 -117 -20 -96 -55 -181 -109 -266 -41 -64 -42 -80 -5 -60 16 7 33 14
40 14 7 0 48 25 93 55 78 53 80 54 74 27 -11 -49 -26 -96 -51 -156 -13 -32
-22 -60 -19 -63 6 -6 101 39 134 63 23 17 23 17 16 -12 -4 -16 -15 -50 -25
-76 -10 -27 -15 -48 -10 -48 11 0 82 56 98 77 19 25 17 1 -7 -81 -11 -38 -18
-72 -15 -74 10 -10 116 82 145 126 22 33 30 40 30 25 0 -11 9 -45 19 -75 17
-49 17 -60 5 -107 -7 -28 -18 -86 -24 -128 -7 -54 -16 -82 -30 -95 -23 -22
-23 -20 -9 -67 8 -28 7 -49 -4 -95 -17 -65 -14 -86 14 -86 14 0 19 7 19 27 0
15 5 53 12 85 8 41 9 61 2 66 -19 13 -23 41 -9 56 22 22 31 51 45 153 16 112
19 119 51 101 13 -7 25 -14 27 -14 2 -1 -15 -62 -38 -135 -23 -74 -45 -154
-50 -179 -4 -25 -13 -58 -19 -73 -16 -40 -14 -87 3 -87 8 0 15 16 19 41 3 22
8 43 11 46 3 3 27 -15 53 -41 47 -45 89 -62 77 -31 -4 8 -10 13 -14 10 -4 -3
-22 10 -38 29 -17 19 -32 33 -34 30 -3 -2 -12 4 -21 14 -13 14 -15 26 -8 48 5
16 14 48 21 72 7 23 15 42 18 42 4 0 51 -38 94 -75 10 -8 24 -15 32 -15 17 0
38 -24 29 -33 -3 -4 8 -7 24 -7 l31 0 -14 -57 c-7 -32 -13 -61 -14 -65 0 -5
19 -8 43 -8 34 0 44 4 52 22 15 32 35 35 35 4 0 -18 5 -26 17 -26 15 0 15 14
9 142 -3 79 -9 157 -13 173 -6 29 -5 30 14 12 19 -16 53 -15 53 3 0 4 17 33
37 63 l37 57 23 -22 c30 -28 36 -20 15 23 -26 53 -44 48 -98 -26 l-49 -67 -36
42 c-34 39 -36 47 -36 105 0 62 0 63 26 59 14 -2 53 -7 86 -11 54 -6 64 -11
102 -49 23 -24 42 -52 42 -61 -1 -10 6 -43 15 -73 20 -71 20 -145 0 -179 -15
-25 -15 -30 0 -60 10 -18 20 -54 23 -82 6 -50 16 -62 27 -33 11 29 6 70 -14
109 -20 39 -20 42 -4 94 17 53 13 104 -12 198 -5 17 5 34 41 72 50 54 58 57
176 64 l67 5 -6 -62 c-3 -33 -8 -63 -11 -66 -4 -3 -18 -20 -30 -39 l-24 -33
-54 56 c-30 31 -60 56 -67 56 -14 0 -56 -78 -56 -104 0 -28 14 -17 33 27 l18
42 65 -70 c52 -56 67 -67 74 -55 6 10 10 -41 10 -147 l0 -163 47 0 c42 0 45 1
28 13 -24 18 -14 67 15 67 14 0 23 -11 31 -40 9 -29 18 -40 32 -40 16 0 18 4
12 23 -27 85 -48 179 -71 331 l-26 174 27 46 c31 52 69 86 97 86 31 0 71 27
103 69 40 54 56 59 48 18 -3 -18 -12 -45 -20 -61 -8 -15 -10 -25 -4 -21 19 11
51 83 51 115 0 30 15 41 23 18 5 -16 -15 -95 -32 -127 -7 -12 -10 -25 -7 -28
3 -3 13 9 23 26 10 18 24 40 31 49 11 15 12 14 8 -8 -9 -55 -40 -111 -86 -153
-45 -41 -48 -48 -40 -74 16 -51 110 -450 110 -467 0 -9 7 -16 15 -16 30 0 18
72 -66 393 -24 94 -22 110 13 76 27 -27 58 -135 58 -206 1 -57 18 -122 42
-155 17 -24 19 -34 10 -54 -13 -28 -6 -54 15 -54 8 0 12 4 9 9 -3 4 0 22 6 39
11 27 9 35 -15 69 -23 33 -27 50 -27 104 0 72 -15 168 -32 213 -6 15 -29 41
-50 56 -33 24 -36 29 -22 41 8 7 22 25 30 41 l15 29 36 -31 c19 -17 56 -41 82
-52 25 -11 54 -25 64 -29 21 -11 23 4 1 22 -14 12 -74 120 -74 134 0 3 15 -6
34 -20 46 -35 127 -65 175 -65 l39 0 -50 96 c-27 53 -47 98 -45 100 2 3 31
-13 63 -35 32 -22 60 -38 62 -36 2 2 -3 16 -12 32 -8 15 -22 42 -31 60 l-15
32 56 -30 c31 -16 71 -29 90 -29 l33 0 -43 63 c-43 61 -97 161 -110 204 l-7
21 58 -18 c58 -18 90 -23 127 -21 19 1 19 1 0 20 -40 37 -158 291 -135 291 4
0 18 -12 32 -26 20 -22 75 -54 93 -54 3 0 -3 15 -14 33 -36 62 -78 193 -94
296 -29 190 -134 451 -235 583 -60 78 -171 176 -256 223 -62 35 -169 66 -291
84 -82 12 -315 22 -359 15z m326 -48 c145 -20 221 -41 309 -87 163 -85 242
-169 331 -354 69 -144 117 -286 154 -455 15 -69 30 -129 34 -135 5 -5 15 -29
24 -53 l17 -43 -30 16 c-16 8 -41 27 -55 41 -26 26 -48 27 -28 2 6 -7 14 -31
18 -53 10 -59 51 -151 97 -217 l39 -59 -28 7 c-15 3 -59 17 -98 29 -72 24 -85
24 -68 3 6 -7 14 -31 18 -52 9 -54 49 -131 96 -188 l40 -47 -37 15 c-48 20
-82 42 -116 73 -40 36 -46 18 -14 -46 l28 -57 -34 26 c-31 24 -33 30 -36 94
-2 38 7 143 19 234 24 184 23 416 -3 480 -12 30 -13 16 -10 -126 3 -114 -1
-193 -13 -279 -27 -190 -39 -313 -39 -407 0 -83 -1 -87 -18 -71 -30 27 -68
115 -68 156 0 21 16 86 36 143 20 60 34 118 32 137 -3 28 -6 22 -26 -43 -13
-41 -51 -131 -85 -199 -51 -103 -63 -120 -68 -100 -3 13 -3 31 1 39 4 8 13 62
19 119 10 91 15 108 41 142 57 71 121 247 119 325 -1 20 -7 8 -19 -39 -42
-158 -133 -301 -249 -394 -83 -66 -100 -72 -53 -18 114 130 188 341 199 575 6
123 -8 194 -64 309 -62 130 -209 260 -389 346 -136 65 -149 55 -18 -13 286
-148 416 -311 438 -552 l6 -65 -24 39 c-21 34 -45 56 -121 113 -6 5 -41 23
-78 41 -37 17 -70 39 -73 47 -4 8 -15 15 -25 15 -11 0 -36 7 -56 15 -51 21
-53 11 -4 -15 l41 -20 -24 -48 c-13 -26 -32 -57 -42 -70 -18 -21 -21 -21 -59
-8 -37 13 -40 17 -58 81 l-19 68 41 41 c23 23 41 45 41 49 0 16 -36 5 -61 -19
l-28 -26 -10 38 c-5 22 -13 51 -17 67 -3 15 -10 27 -14 27 -17 0 -18 -31 -4
-97 l14 -68 -41 -37 -40 -38 -77 52 c-149 100 -242 195 -242 247 0 39 -16 21
-39 -44 -13 -36 -31 -75 -41 -88 -9 -12 -56 -85 -104 -162 -49 -77 -96 -149
-106 -160 -10 -11 -28 -39 -40 -62 -12 -24 -23 -43 -25 -43 -7 0 38 170 54
203 11 22 14 36 8 34 -21 -7 -46 -61 -74 -162 -26 -92 -28 -113 -28 -275 1
-172 1 -176 29 -230 16 -30 36 -64 45 -74 10 -13 1 -9 -27 10 -67 45 -124 167
-147 309 -11 75 -13 78 -20 43 -17 -86 56 -296 137 -393 18 -22 46 -59 62 -83
16 -24 55 -74 87 -111 l57 -68 -41 10 c-22 6 -66 27 -97 48 -114 75 -196 198
-224 332 -12 53 -15 58 -21 36 -6 -25 3 -77 27 -145 10 -28 7 -38 -22 -88 -33
-59 -48 -70 -30 -22 18 48 13 214 -10 346 -45 259 -45 299 0 460 24 83 94 238
137 303 45 66 48 74 24 52 -55 -48 -166 -275 -200 -406 -37 -145 -36 -232 4
-419 7 -36 17 -97 20 -136 l7 -70 -58 -60 c-54 -54 -175 -144 -194 -144 -5 0
11 34 35 75 23 42 51 106 60 143 22 83 32 266 16 276 -7 5 -11 -1 -11 -13 0
-11 -27 -48 -61 -83 -33 -35 -52 -49 -41 -33 70 107 108 223 127 385 24 213
71 371 142 478 46 70 165 196 237 251 61 47 111 64 274 93 64 11 146 26 182
33 88 17 292 18 421 1z m-507 -446 c34 -52 120 -133 199 -188 34 -23 65 -49
70 -58 4 -8 12 -12 17 -9 11 7 122 -45 136 -63 6 -9 18 -13 28 -9 23 9 63 -12
70 -36 5 -20 6 -20 23 -4 18 15 23 15 78 -8 174 -70 330 -172 311 -203 -2 -4
-7 -26 -10 -48 -6 -38 -40 -141 -50 -151 -2 -3 -13 0 -24 6 -11 6 -60 20 -109
32 -131 31 -253 18 -240 -26 2 -5 48 -14 103 -18 87 -7 227 -37 242 -51 11
-11 -67 -123 -134 -193 -46 -47 -64 -71 -50 -67 47 13 144 63 186 95 72 55 69
56 63 -13 -6 -62 -35 -138 -52 -138 -5 0 -24 -16 -43 -36 -80 -88 -88 -94
-115 -94 -33 0 -87 -31 -102 -57 -19 -37 -261 -60 -466 -45 -128 10 -144 14
-215 52 -19 11 -48 19 -65 20 -16 0 -48 9 -70 20 -22 11 -31 18 -20 14 44 -12
113 -16 119 -6 3 6 -2 13 -13 17 -39 12 -211 220 -211 255 0 10 59 -15 70 -30
7 -10 50 -32 50 -25 0 3 -27 38 -60 77 -33 39 -57 75 -54 79 3 5 0 9 -5 9 -26
0 -44 76 -49 207 l-4 132 46 86 c42 78 219 353 235 365 12 9 69 105 76 128 3
12 8 22 9 22 2 0 15 -18 30 -40z m395 -228 c1 -22 0 -22 -30 -6 l-31 16 23 24
c21 23 24 23 30 7 4 -10 8 -28 8 -41z m312 11 c27 -16 49 -34 49 -40 0 -20
-43 -103 -53 -103 -6 0 -35 9 -67 21 l-56 20 24 52 c25 53 40 77 49 77 3 0 27
-12 54 -27z m132 -91 l28 -29 -19 -40 -18 -41 -40 22 -41 21 16 35 c32 71 36
72 74 32z m85 -111 c20 -32 29 -57 25 -71 -5 -20 -7 -20 -43 15 -35 35 -37 39
-27 71 6 19 11 34 13 34 1 0 16 -22 32 -49z m-1563 -683 c-8 -34 -23 -70 -32
-80 -13 -15 -14 -18 -2 -18 18 0 86 70 121 122 l25 38 31 -48 c16 -26 42 -58
56 -71 20 -19 23 -27 15 -43 -6 -11 -8 -27 -5 -35 6 -15 -30 -79 -78 -137
l-24 -29 15 63 c15 67 14 111 -2 117 -5 1 -26 -20 -45 -48 -18 -28 -37 -52
-42 -55 -9 -6 14 52 48 118 13 26 24 58 23 70 0 21 -2 20 -15 -7 -13 -25 -99
-90 -170 -128 -6 -4 -3 10 7 31 21 43 49 145 49 179 0 13 8 36 18 51 l17 26 3
-27 c2 -14 -4 -55 -13 -89z m1699 -162 c28 -37 103 -83 114 -70 4 4 1 9 -5 11
-7 3 -13 17 -13 31 0 25 3 23 27 -18 14 -25 33 -54 42 -64 15 -18 15 -19 -14
-12 -58 14 -166 70 -191 99 -13 15 -24 39 -24 53 0 13 -5 24 -11 24 -16 0 -1
-95 27 -164 l24 -59 -23 19 c-84 70 -84 70 -74 127 5 28 21 75 35 103 l26 52
16 -48 c9 -27 29 -65 44 -84z m-1346 -15 c12 -17 22 -33 22 -37 0 -12 -34 -33
-52 -34 -10 0 -17 -4 -15 -9 1 -5 -2 -10 -8 -11 -5 -1 -22 28 -37 66 -31 75
-31 74 -20 74 4 0 18 -20 30 -45 12 -25 26 -45 32 -45 15 0 12 16 -9 52 -11
17 -18 35 -15 40 7 11 46 -16 72 -51z m152 -71 c16 0 30 -3 30 -6 0 -13 -47
-43 -68 -44 -13 0 -21 -4 -17 -9 9 -15 -29 -31 -55 -24 -15 4 -21 2 -17 -5 10
-15 -14 -21 -40 -9 -27 12 -40 46 -22 58 7 4 17 5 21 3 4 -3 8 2 8 10 0 9 4
16 8 16 5 0 19 9 31 19 20 18 25 18 56 5 19 -8 48 -14 65 -14z m71 -41 c14
-27 2 -199 -14 -199 -6 0 -22 10 -36 23 -14 12 -19 14 -12 5 12 -16 10 -18
-19 -18 -18 0 -39 8 -48 18 -10 10 -14 13 -10 7 12 -19 -1 -24 -33 -12 -31 12
-31 16 -3 83 11 27 36 46 64 49 3 0 19 10 37 23 29 20 32 21 36 5 3 -11 5 -8
6 10 1 32 16 35 32 6z m284 -39 c3 -5 1 -10 -4 -10 -6 0 -11 5 -11 10 0 6 2
10 4 10 3 0 8 -4 11 -10z m87 -12 c-12 -12 -35 -1 -27 12 3 5 13 6 21 3 10 -4
12 -9 6 -15z m-38 -40 c-10 -15 -34 19 -27 38 4 12 8 11 20 -6 8 -11 11 -25 7
-32z m-497 -103 c15 -10 47 -16 93 -16 66 -1 70 -2 65 -22 -2 -12 -9 -62 -16
-111 -11 -83 -13 -88 -25 -65 -10 19 -13 20 -14 6 0 -16 -1 -16 -25 -1 -14 9
-32 29 -40 43 -10 19 -14 21 -15 9 0 -26 -27 -11 -39 20 -6 18 -10 21 -10 9
-1 -29 -41 -2 -41 28 0 39 23 115 35 115 6 0 20 -7 32 -15z m811 -232 c4 -24
-22 -47 -43 -39 -15 5 -22 66 -8 79 10 11 48 -18 51 -40z m-610 3 c4 -18 -14
-46 -29 -46 -11 0 -12 54 -2 64 11 10 28 1 31 -18z"/>
<path d="M840 1693 c-30 -14 -50 -27 -43 -30 21 -8 123 28 123 43 0 19 -16 17
-80 -13z"/>
<path d="M900 1311 c-26 -6 -31 -9 -19 -15 23 -10 104 -3 102 9 -3 13 -38 15
-83 6z"/>
<path d="M1495 1301 c-8 -13 4 -17 50 -15 63 3 72 5 45 14 -35 11 -88 12 -95
1z"/>
<path d="M775 1234 c-85 -17 -118 -30 -141 -55 -13 -14 -15 -22 -6 -31 8 -8
31 -4 89 15 54 17 113 27 189 32 120 8 140 14 131 39 -5 13 -23 16 -99 15 -51
0 -124 -7 -163 -15z"/>
<path d="M724 1116 c4 -10 1 -25 -5 -32 -10 -12 -8 -13 6 -8 10 4 21 1 27 -7
8 -11 9 -10 4 4 -3 10 -1 28 6 40 10 20 10 21 -6 8 -15 -13 -19 -13 -28 0 -8
11 -9 10 -4 -5z"/>
<path d="M645 1100 c4 -14 14 -32 22 -40 12 -13 13 -13 7 3 -4 11 1 26 12 40
16 18 16 20 2 8 -15 -11 -21 -11 -34 0 -15 12 -16 11 -9 -11z"/>
<path d="M1180 1031 c-60 -9 -82 -25 -118 -85 -103 -170 -29 -241 193 -186 44
11 93 20 108 20 41 0 77 40 77 86 0 107 -124 186 -260 165z m101 -28 l54 -17
-50 -6 c-94 -13 -191 12 -123 32 39 10 62 9 119 -9z m-23 -49 c140 -2 151 -7
152 -80 0 -51 -12 -61 -86 -75 -33 -6 -83 -17 -113 -26 -58 -16 -132 -13 -156
7 -28 23 -16 92 28 158 15 22 27 30 37 25 8 -4 70 -8 138 -9z"/>
<path d="M1004 736 c4 -12 0 -23 -11 -32 -17 -12 -16 -13 5 -7 13 3 22 1 22
-6 0 -6 4 -11 9 -11 5 0 7 9 4 19 -3 13 1 21 14 24 16 4 16 5 -2 6 -12 0 -27
7 -34 14 -12 10 -13 9 -7 -7z"/>
<path d="M1080 711 c0 -12 -4 -21 -10 -21 -5 0 -10 -4 -10 -10 0 -5 7 -7 16
-3 9 3 20 0 25 -8 7 -11 9 -9 9 8 0 12 8 27 18 33 16 10 15 10 -3 8 -11 -1
-26 1 -32 5 -9 6 -13 2 -13 -12z"/>
</g>
</svg>
